<?xml version="1.0" encoding="utf-8"?><svg xmlns="http://www.w3.org/2000/svg" xmlns:xlink="http://www.w3.org/1999/xlink"><symbol viewBox="0 0 29 28" id="bag" xmlns="http://www.w3.org/2000/svg"><g clip-path="url(#clip-04A49B35-7D2C-DF1D-CA66-4467D2E3AC88)"><path d="M17.602 8.167c0-2.187-1.513-3.917-3.317-3.917-1.745 0-3.219 1.62-3.312 3.707l-.005.21v.416h6.634zm5.784 13.166c0 1.52-1.257 2.75-2.807 2.75H7.991c-1.55 0-2.806-1.23-2.806-2.75V8.583h4.252v-.416c0-2.968 2.142-5.417 4.848-5.417 2.637 0 4.738 2.325 4.844 5.19l.004.227v.416h4.253zm-16.67 0c0 .648.502 1.18 1.145 1.244l.13.006H20.58c.705 0 1.276-.56 1.276-1.25v-11.25h-2.722v2.75h-1.53v-2.75h-6.635v2.75h-1.53v-2.75H6.714z"/></g></symbol><symbol viewBox="0 0 29 28" id="bag-01" xmlns="http://www.w3.org/2000/svg"><path d="M17.6 8.17a3.66 3.66 0 00-3.32-3.92A3.63 3.63 0 0011 8v.62h6.6zm5.79 13.16a2.78 2.78 0 01-2.81 2.75H8a2.77 2.77 0 01-2.8-2.75V8.58h4.24v-.41c0-3 2.14-5.42 4.84-5.42a5.13 5.13 0 014.85 5.19v.64h4.26zm-16.67 0a1.27 1.27 0 001.14 1.25h12.72a1.27 1.27 0 001.28-1.25V10.08h-2.73v2.75H17.6v-2.75H11v2.75H9.44v-2.75H6.71z"/></symbol><symbol viewBox="0 0 32 32" id="check" xmlns="http://www.w3.org/2000/svg"><path d="M26.664 6.27a.829.829 0 00-1.177 0L13.088 18.611a.826.826 0 01-1.178 0l-5.433-5.532a.825.825 0 00-1.177 0l-2.401 2.158a.83.83 0 00-.246.583c0 .215.087.44.247.603l5.478 5.749c.324.328.855.861 1.178 1.186l2.355 2.374a.834.834 0 001.178 0L29.019 9.83a.846.846 0 000-1.188l-2.356-2.373z"/></symbol><symbol viewBox="0 0 45.437 45.437" id="empty" xmlns="http://www.w3.org/2000/svg"/></svg>