<svg xmlns="http://www.w3.org/2000/svg" width="106" height="24" viewBox="0 0 106 24"><g><g><g><g><g><path fill="#171347" d="M7.711 12.733c0-1.729 1.422-3.13 3.176-3.13 1.753 0 3.175 1.401 3.175 3.13 0 1.729-1.422 3.13-3.175 3.13-1.754 0-3.176-1.401-3.176-3.13zm4.59 8.002a5.355 5.355 0 0 0 4.174 1.995h.16a5.365 5.365 0 0 0 1.835-10.408A5.367 5.367 0 0 0 16.415 2h-.16a5.365 5.365 0 0 0-5.365 5.365A5.365 5.365 0 0 0 5.525 2h-.16a5.365 5.365 0 0 0-1.949 10.365A5.367 5.367 0 0 0 5.365 22.73h.16c1.72 0 3.25-.809 4.232-2.067L8.997 26h4.233z"/></g></g></g><g><path fill="#171347" d="M102.76 15.06c-.013-.28-.07-.55-.17-.81s-.25-.49-.45-.69c-.2-.2-.447-.36-.74-.48s-.64-.18-1.04-.18c-.36 0-.683.063-.97.19a2.29 2.29 0 0 0-.73.5c-.2.207-.36.44-.48.7-.12.26-.187.517-.2.77zm-4.08 5.89a4.604 4.604 0 0 1-1.58-1.02 5.005 5.005 0 0 1-1.09-1.64c-.273-.647-.41-1.383-.41-2.21 0-.773.13-1.473.39-2.1s.61-1.163 1.05-1.61a4.75 4.75 0 0 1 1.52-1.04 4.46 4.46 0 0 1 1.78-.37c.747 0 1.417.12 2.01.36.593.24 1.093.58 1.5 1.02.407.44.717.97.93 1.59.213.62.32 1.317.32 2.09 0 .187-.007.35-.02.49-.013.14-.027.223-.04.25h-7.12c.013.373.093.713.24 1.02a2.635 2.635 0 0 0 2.42 1.52c.707 0 1.25-.163 1.63-.49.38-.327.65-.73.81-1.21l1.96.62a4.536 4.536 0 0 1-.58 1.2c-.253.373-.567.7-.94.98s-.8.5-1.28.66c-.48.16-1.013.24-1.6.24-.667 0-1.3-.117-1.9-.35zm-7.62.05v-9.74h2.3V21zm.08-12.09a1.435 1.435 0 0 1-.44-1.07c0-.427.147-.787.44-1.08.293-.293.647-.44 1.06-.44.427 0 .787.147 1.08.44.293.293.44.653.44 1.08 0 .427-.147.783-.44 1.07-.293.287-.653.43-1.08.43-.413 0-.767-.143-1.06-.43zM83.42 21v-9.74h2.26v1.56a2.553 2.553 0 0 1 1.1-1.24 3.37 3.37 0 0 1 1.72-.44c.147 0 .273.007.38.02.107.013.187.027.24.04v2.36c-.267-.04-.52-.06-.76-.06-.907 0-1.57.247-1.99.74-.42.493-.63 1.2-.63 2.12V21zm-4.56-5.94c-.013-.28-.07-.55-.17-.81s-.25-.49-.45-.69c-.2-.2-.447-.36-.74-.48s-.64-.18-1.04-.18c-.36 0-.683.063-.97.19a2.29 2.29 0 0 0-.73.5c-.2.207-.36.44-.48.7-.12.26-.187.517-.2.77zm-4.08 5.89a4.604 4.604 0 0 1-1.58-1.02 5.005 5.005 0 0 1-1.09-1.64c-.273-.647-.41-1.383-.41-2.21 0-.773.13-1.473.39-2.1s.61-1.163 1.05-1.61a4.75 4.75 0 0 1 1.52-1.04 4.46 4.46 0 0 1 1.78-.37c.747 0 1.417.12 2.01.36.593.24 1.093.58 1.5 1.02.407.44.717.97.93 1.59.213.62.32 1.317.32 2.09 0 .187-.007.35-.02.49-.013.14-.027.223-.04.25h-7.12c.013.373.093.713.24 1.02a2.635 2.635 0 0 0 2.42 1.52c.707 0 1.25-.163 1.63-.49.38-.327.65-.73.81-1.21l1.96.62a4.536 4.536 0 0 1-.58 1.2c-.253.373-.567.7-.94.98s-.8.5-1.28.66c-.48.16-1.013.24-1.6.24-.667 0-1.3-.117-1.9-.35zM55 21v-9.74h2.22v1.24a2.73 2.73 0 0 1 1.24-1.13 3.79 3.79 0 0 1 1.64-.39c.64 0 1.22.143 1.74.43.52.287.913.717 1.18 1.29.387-.64.85-1.087 1.39-1.34.54-.253 1.13-.38 1.77-.38a3.8 3.8 0 0 1 1.28.22c.413.147.78.37 1.1.67.32.3.577.683.77 1.15.193.467.29 1.02.29 1.66V21h-2.24v-5.94c0-.573-.15-1.05-.45-1.43-.3-.38-.777-.57-1.43-.57-.613 0-1.103.21-1.47.63-.367.42-.55.93-.55 1.53V21H61.2v-5.94c0-.56-.147-1.033-.44-1.42-.293-.387-.773-.58-1.44-.58-.627 0-1.12.203-1.48.61-.36.407-.54.923-.54 1.55V21zm-4.56-5.94c-.013-.28-.07-.55-.17-.81s-.25-.49-.45-.69c-.2-.2-.447-.36-.74-.48s-.64-.18-1.04-.18c-.36 0-.683.063-.97.19a2.29 2.29 0 0 0-.73.5c-.2.207-.36.44-.48.7-.12.26-.187.517-.2.77zm-4.08 5.89a4.604 4.604 0 0 1-1.58-1.02 5.005 5.005 0 0 1-1.09-1.64c-.273-.647-.41-1.383-.41-2.21 0-.773.13-1.473.39-2.1s.61-1.163 1.05-1.61a4.75 4.75 0 0 1 1.52-1.04 4.46 4.46 0 0 1 1.78-.37c.747 0 1.417.12 2.01.36.593.24 1.093.58 1.5 1.02.407.44.717.97.93 1.59.213.62.32 1.317.32 2.09 0 .187-.007.35-.02.49-.013.14-.027.223-.04.25H45.6c.013.373.093.713.24 1.02a2.635 2.635 0 0 0 2.42 1.52c.707 0 1.25-.163 1.63-.49.38-.327.65-.73.81-1.21l1.96.62a4.536 4.536 0 0 1-.58 1.2c-.253.373-.567.7-.94.98s-.8.5-1.28.66c-.48.16-1.013.24-1.6.24-.667 0-1.3-.117-1.9-.35zm-8.14-.59c-.52-.507-.78-1.22-.78-2.14v-4.9h-1.8v-2.06h.5c.52 0 .9-.147 1.14-.44.24-.293.36-.653.36-1.08V8.28h2.1v2.98h2.02v2.06h-2.02v4.52c0 .427.1.737.3.93.2.193.513.29.94.29.16 0 .32-.01.48-.03.16-.02.267-.037.32-.05v1.92c-.067.027-.213.07-.44.13s-.553.09-.98.09c-.907 0-1.62-.253-2.14-.76zM31.5 21v-9.74h2.3V21zm.08-12.09a1.435 1.435 0 0 1-.44-1.07c0-.427.147-.787.44-1.08.293-.293.647-.44 1.06-.44.427 0 .787.147 1.08.44.293.293.44.653.44 1.08 0 .427-.147.783-.44 1.07-.293.287-.653.43-1.08.43-.413 0-.767-.143-1.06-.43z"/></g></g></g></svg>